<?xml version="1.0" encoding="UTF-8"?>
<svg xmlns="http://www.w3.org/2000/svg" xmlns:xlink="http://www.w3.org/1999/xlink" width="1920" height="1080" viewBox="0 0 1920 1080">
<defs>
<g>
<g id="glyph-0-0">
<path d="M 6.792969 -5.609375 L 6.417969 -5.609375 C 6.386719 -5.738281 6.328125 -5.894531 6.242188 -6.074219 C 6.15625 -6.253906 6.0625 -6.421875 5.957031 -6.582031 C 5.847656 -6.746094 5.726562 -6.894531 5.597656 -7.015625 C 5.472656 -7.140625 5.347656 -7.214844 5.226562 -7.230469 C 5.113281 -7.246094 4.972656 -7.257812 4.804688 -7.265625 C 4.632812 -7.273438 4.476562 -7.273438 4.328125 -7.273438 L 4.015625 -7.273438 L 4.015625 -1.117188 C 4.015625 -1 4.039062 -0.890625 4.089844 -0.789062 C 4.140625 -0.691406 4.230469 -0.613281 4.355469 -0.558594 C 4.421875 -0.535156 4.558594 -0.5 4.765625 -0.457031 C 4.972656 -0.414062 5.136719 -0.390625 5.25 -0.386719 L 5.25 0 L 1.617188 0 L 1.617188 -0.386719 C 1.71875 -0.390625 1.871094 -0.40625 2.082031 -0.429688 C 2.289062 -0.449219 2.433594 -0.476562 2.511719 -0.511719 C 2.632812 -0.558594 2.71875 -0.625 2.773438 -0.714844 C 2.832031 -0.800781 2.859375 -0.921875 2.859375 -1.070312 L 2.859375 -7.273438 L 2.542969 -7.273438 C 2.433594 -7.273438 2.292969 -7.273438 2.125 -7.265625 C 1.960938 -7.261719 1.800781 -7.25 1.648438 -7.230469 C 1.53125 -7.21875 1.40625 -7.144531 1.277344 -7.015625 C 1.148438 -6.890625 1.03125 -6.742188 0.921875 -6.582031 C 0.8125 -6.417969 0.71875 -6.246094 0.632812 -6.0625 C 0.550781 -5.878906 0.492188 -5.730469 0.460938 -5.609375 L 0.0820312 -5.609375 L 0.0820312 -7.699219 L 6.792969 -7.699219 Z "/>
</g>
<g id="glyph-0-1">
<path d="M 8.359375 -5.003906 C 8.207031 -4.988281 8.042969 -4.925781 7.871094 -4.8125 C 7.695312 -4.699219 7.566406 -4.53125 7.488281 -4.308594 C 7.304688 -3.777344 7.136719 -3.273438 6.972656 -2.796875 C 6.8125 -2.320312 6.632812 -1.785156 6.433594 -1.195312 C 6.367188 -1.003906 6.304688 -0.804688 6.234375 -0.585938 C 6.167969 -0.367188 6.109375 -0.160156 6.054688 0.0390625 L 5.589844 0.0390625 L 4.148438 -3.90625 L 2.703125 0.0390625 L 2.257812 0.0390625 C 1.984375 -0.765625 1.71875 -1.5625 1.460938 -2.351562 C 1.203125 -3.140625 0.976562 -3.832031 0.777344 -4.417969 C 0.71875 -4.585938 0.609375 -4.71875 0.445312 -4.816406 C 0.28125 -4.914062 0.125 -4.972656 -0.0273438 -4.992188 L -0.0273438 -5.347656 L 2.359375 -5.347656 L 2.359375 -4.96875 C 2.238281 -4.964844 2.109375 -4.945312 1.972656 -4.910156 C 1.832031 -4.875 1.761719 -4.8125 1.761719 -4.730469 C 1.761719 -4.714844 1.769531 -4.683594 1.78125 -4.636719 C 1.792969 -4.589844 1.808594 -4.539062 1.828125 -4.488281 C 1.941406 -4.109375 2.074219 -3.683594 2.21875 -3.21875 C 2.367188 -2.75 2.554688 -2.140625 2.785156 -1.394531 L 4.152344 -5.242188 L 4.675781 -5.242188 L 6.070312 -1.449219 C 6.226562 -1.933594 6.378906 -2.402344 6.535156 -2.855469 C 6.6875 -3.308594 6.824219 -3.730469 6.9375 -4.128906 C 6.964844 -4.222656 6.988281 -4.308594 7.011719 -4.386719 C 7.035156 -4.464844 7.046875 -4.539062 7.046875 -4.617188 C 7.046875 -4.683594 7.019531 -4.738281 6.960938 -4.789062 C 6.902344 -4.839844 6.832031 -4.882812 6.75 -4.914062 C 6.675781 -4.945312 6.597656 -4.964844 6.511719 -4.980469 C 6.429688 -4.996094 6.367188 -5.003906 6.328125 -5.003906 L 6.328125 -5.347656 L 8.359375 -5.347656 Z "/>
</g>
<g id="glyph-0-2">
<path d="M 5.609375 -2.730469 C 5.609375 -2.351562 5.550781 -1.984375 5.429688 -1.621094 C 5.3125 -1.257812 5.140625 -0.949219 4.917969 -0.695312 C 4.671875 -0.40625 4.378906 -0.191406 4.050781 -0.046875 C 3.722656 0.09375 3.351562 0.164062 2.941406 0.164062 C 2.601562 0.164062 2.277344 0.0976562 1.972656 -0.03125 C 1.664062 -0.160156 1.390625 -0.34375 1.152344 -0.589844 C 0.914062 -0.832031 0.726562 -1.128906 0.589844 -1.476562 C 0.449219 -1.828125 0.378906 -2.21875 0.378906 -2.652344 C 0.378906 -3.488281 0.625 -4.171875 1.109375 -4.703125 C 1.597656 -5.234375 2.234375 -5.5 3.023438 -5.5 C 3.773438 -5.5 4.390625 -5.25 4.878906 -4.746094 C 5.367188 -4.238281 5.609375 -3.566406 5.609375 -2.730469 M 4.488281 -2.71875 C 4.488281 -2.988281 4.460938 -3.277344 4.40625 -3.578125 C 4.351562 -3.878906 4.269531 -4.136719 4.160156 -4.34375 C 4.042969 -4.570312 3.890625 -4.75 3.703125 -4.886719 C 3.515625 -5.019531 3.285156 -5.089844 3.011719 -5.089844 C 2.734375 -5.089844 2.496094 -5.019531 2.300781 -4.882812 C 2.101562 -4.746094 1.941406 -4.558594 1.816406 -4.320312 C 1.703125 -4.097656 1.621094 -3.847656 1.574219 -3.5625 C 1.527344 -3.28125 1.503906 -3.007812 1.503906 -2.746094 C 1.503906 -2.398438 1.53125 -2.078125 1.585938 -1.78125 C 1.644531 -1.488281 1.734375 -1.222656 1.855469 -0.992188 C 1.980469 -0.761719 2.132812 -0.578125 2.320312 -0.449219 C 2.507812 -0.316406 2.738281 -0.25 3.011719 -0.25 C 3.464844 -0.25 3.824219 -0.46875 4.089844 -0.90625 C 4.355469 -1.34375 4.488281 -1.949219 4.488281 -2.71875 Z "/>
</g>
<g id="glyph-0-3">
</g>
<g id="glyph-0-4">
<path d="M 5.320312 -3.53125 C 5.484375 -3.351562 5.605469 -3.152344 5.683594 -2.9375 C 5.761719 -2.722656 5.800781 -2.472656 5.800781 -2.1875 C 5.800781 -1.507812 5.546875 -0.945312 5.046875 -0.503906 C 4.542969 -0.0625 3.917969 0.15625 3.171875 0.15625 C 2.832031 0.15625 2.488281 0.105469 2.144531 -0.00390625 C 1.800781 -0.109375 1.503906 -0.238281 1.253906 -0.390625 L 1.019531 0.00390625 L 0.585938 0.00390625 L 0.511719 -2.632812 L 0.949219 -2.632812 C 1.039062 -2.304688 1.144531 -2.011719 1.265625 -1.75 C 1.386719 -1.488281 1.546875 -1.242188 1.746094 -1.015625 C 1.933594 -0.800781 2.15625 -0.632812 2.40625 -0.503906 C 2.65625 -0.378906 2.949219 -0.316406 3.28125 -0.316406 C 3.53125 -0.316406 3.75 -0.347656 3.9375 -0.414062 C 4.121094 -0.476562 4.273438 -0.570312 4.390625 -0.691406 C 4.503906 -0.808594 4.589844 -0.949219 4.648438 -1.109375 C 4.703125 -1.273438 4.730469 -1.457031 4.730469 -1.667969 C 4.730469 -1.976562 4.644531 -2.261719 4.46875 -2.527344 C 4.296875 -2.792969 4.039062 -2.996094 3.695312 -3.132812 C 3.460938 -3.226562 3.191406 -3.332031 2.886719 -3.445312 C 2.582031 -3.558594 2.320312 -3.664062 2.097656 -3.765625 C 1.664062 -3.960938 1.328125 -4.21875 1.085938 -4.535156 C 0.847656 -4.851562 0.726562 -5.261719 0.726562 -5.773438 C 0.726562 -6.066406 0.785156 -6.339844 0.90625 -6.59375 C 1.023438 -6.84375 1.195312 -7.070312 1.414062 -7.269531 C 1.625 -7.457031 1.875 -7.605469 2.160156 -7.710938 C 2.445312 -7.820312 2.742188 -7.871094 3.054688 -7.871094 C 3.410156 -7.871094 3.726562 -7.816406 4.007812 -7.710938 C 4.285156 -7.601562 4.542969 -7.472656 4.773438 -7.328125 L 4.996094 -7.699219 L 5.429688 -7.699219 L 5.472656 -5.144531 L 5.035156 -5.144531 C 4.953125 -5.4375 4.867188 -5.714844 4.765625 -5.984375 C 4.667969 -6.25 4.539062 -6.492188 4.378906 -6.710938 C 4.222656 -6.921875 4.03125 -7.089844 3.808594 -7.210938 C 3.585938 -7.335938 3.308594 -7.398438 2.984375 -7.398438 C 2.640625 -7.398438 2.347656 -7.289062 2.105469 -7.070312 C 1.863281 -6.847656 1.742188 -6.578125 1.742188 -6.261719 C 1.742188 -5.929688 1.820312 -5.652344 1.976562 -5.433594 C 2.128906 -5.214844 2.355469 -5.035156 2.652344 -4.894531 C 2.917969 -4.765625 3.175781 -4.65625 3.429688 -4.566406 C 3.6875 -4.472656 3.933594 -4.375 4.171875 -4.269531 C 4.390625 -4.175781 4.597656 -4.070312 4.796875 -3.949219 C 5 -3.832031 5.171875 -3.691406 5.320312 -3.53125 Z "/>
</g>
<g id="glyph-0-5">
<path d="M 6.125 -0.0976562 L 4.378906 0.0234375 L 4.296875 -0.0546875 L 4.296875 -0.730469 L 4.265625 -0.730469 C 4.175781 -0.640625 4.078125 -0.546875 3.972656 -0.441406 C 3.863281 -0.339844 3.738281 -0.246094 3.597656 -0.164062 C 3.433594 -0.0664062 3.277344 0.0078125 3.125 0.0585938 C 2.976562 0.109375 2.761719 0.136719 2.480469 0.136719 C 2.007812 0.136719 1.648438 -0.0195312 1.402344 -0.328125 C 1.15625 -0.636719 1.03125 -1.085938 1.03125 -1.675781 L 1.03125 -4.230469 C 1.03125 -4.363281 1.007812 -4.472656 0.957031 -4.558594 C 0.90625 -4.648438 0.835938 -4.726562 0.742188 -4.789062 C 0.675781 -4.832031 0.59375 -4.867188 0.496094 -4.886719 C 0.398438 -4.90625 0.292969 -4.917969 0.183594 -4.925781 L 0.183594 -5.285156 L 1.96875 -5.414062 L 2.050781 -5.339844 L 2.050781 -1.621094 C 2.050781 -1.234375 2.136719 -0.945312 2.3125 -0.75 C 2.484375 -0.554688 2.691406 -0.457031 2.933594 -0.457031 C 3.132812 -0.457031 3.3125 -0.488281 3.464844 -0.546875 C 3.621094 -0.609375 3.753906 -0.679688 3.855469 -0.765625 C 3.953125 -0.839844 4.039062 -0.921875 4.113281 -1.003906 C 4.1875 -1.089844 4.246094 -1.167969 4.285156 -1.242188 L 4.285156 -4.269531 C 4.285156 -4.390625 4.261719 -4.496094 4.210938 -4.585938 C 4.160156 -4.679688 4.089844 -4.757812 4 -4.824219 C 3.933594 -4.867188 3.835938 -4.894531 3.707031 -4.902344 C 3.578125 -4.910156 3.4375 -4.917969 3.277344 -4.925781 L 3.277344 -5.285156 L 5.222656 -5.414062 L 5.304688 -5.339844 L 5.304688 -1.09375 C 5.304688 -0.972656 5.332031 -0.867188 5.382812 -0.78125 C 5.433594 -0.695312 5.503906 -0.621094 5.59375 -0.558594 C 5.660156 -0.519531 5.734375 -0.492188 5.828125 -0.480469 C 5.917969 -0.46875 6.015625 -0.460938 6.125 -0.457031 Z "/>
</g>
<g id="glyph-0-6">
<path d="M 9.542969 0 L 6.9375 0 L 6.9375 -0.359375 C 7.023438 -0.367188 7.105469 -0.371094 7.191406 -0.378906 C 7.277344 -0.386719 7.351562 -0.402344 7.417969 -0.421875 C 7.515625 -0.457031 7.59375 -0.511719 7.640625 -0.59375 C 7.691406 -0.675781 7.714844 -0.78125 7.714844 -0.910156 L 7.714844 -3.671875 C 7.714844 -4.050781 7.628906 -4.339844 7.457031 -4.542969 C 7.285156 -4.746094 7.070312 -4.851562 6.8125 -4.851562 C 6.636719 -4.851562 6.46875 -4.824219 6.316406 -4.769531 C 6.160156 -4.714844 6.015625 -4.636719 5.886719 -4.539062 C 5.78125 -4.460938 5.695312 -4.375 5.625 -4.28125 C 5.550781 -4.191406 5.5 -4.113281 5.464844 -4.050781 L 5.464844 -0.964844 C 5.464844 -0.839844 5.484375 -0.734375 5.527344 -0.652344 C 5.570312 -0.574219 5.644531 -0.511719 5.75 -0.464844 C 5.832031 -0.433594 5.910156 -0.410156 5.976562 -0.394531 C 6.042969 -0.378906 6.128906 -0.367188 6.238281 -0.359375 L 6.238281 0 L 3.6875 0 L 3.6875 -0.359375 C 3.773438 -0.367188 3.851562 -0.371094 3.929688 -0.378906 C 4.007812 -0.386719 4.078125 -0.402344 4.144531 -0.421875 C 4.246094 -0.457031 4.320312 -0.511719 4.371094 -0.59375 C 4.417969 -0.675781 4.441406 -0.78125 4.441406 -0.910156 L 4.441406 -3.671875 C 4.441406 -4.050781 4.355469 -4.339844 4.183594 -4.542969 C 4.011719 -4.746094 3.796875 -4.851562 3.539062 -4.851562 C 3.363281 -4.851562 3.195312 -4.820312 3.039062 -4.765625 C 2.882812 -4.710938 2.742188 -4.632812 2.609375 -4.535156 C 2.503906 -4.457031 2.417969 -4.367188 2.34375 -4.265625 C 2.273438 -4.167969 2.21875 -4.09375 2.179688 -4.042969 L 2.179688 -0.976562 C 2.179688 -0.855469 2.207031 -0.75 2.257812 -0.667969 C 2.308594 -0.585938 2.382812 -0.519531 2.484375 -0.476562 C 2.5625 -0.441406 2.636719 -0.414062 2.71875 -0.394531 C 2.796875 -0.378906 2.886719 -0.367188 2.984375 -0.359375 L 2.984375 0 L 0.386719 0 L 0.386719 -0.359375 C 0.46875 -0.367188 0.554688 -0.371094 0.644531 -0.378906 C 0.730469 -0.386719 0.808594 -0.402344 0.875 -0.421875 C 0.976562 -0.457031 1.050781 -0.511719 1.097656 -0.59375 C 1.148438 -0.675781 1.171875 -0.78125 1.171875 -0.910156 L 1.171875 -4.234375 C 1.171875 -4.347656 1.144531 -4.453125 1.09375 -4.542969 C 1.039062 -4.636719 0.96875 -4.714844 0.875 -4.78125 C 0.804688 -4.824219 0.71875 -4.859375 0.617188 -4.886719 C 0.515625 -4.914062 0.414062 -4.929688 0.304688 -4.9375 L 0.304688 -5.296875 L 2.09375 -5.414062 L 2.171875 -5.339844 L 2.171875 -4.574219 L 2.207031 -4.574219 C 2.296875 -4.664062 2.410156 -4.769531 2.539062 -4.894531 C 2.667969 -5.015625 2.789062 -5.117188 2.902344 -5.191406 C 3.027344 -5.277344 3.1875 -5.351562 3.378906 -5.410156 C 3.566406 -5.464844 3.773438 -5.496094 3.992188 -5.496094 C 4.339844 -5.496094 4.636719 -5.402344 4.886719 -5.214844 C 5.136719 -5.03125 5.316406 -4.804688 5.425781 -4.539062 C 5.554688 -4.667969 5.667969 -4.777344 5.769531 -4.875 C 5.867188 -4.96875 6 -5.074219 6.160156 -5.179688 C 6.300781 -5.273438 6.460938 -5.351562 6.648438 -5.410156 C 6.832031 -5.464844 7.039062 -5.496094 7.265625 -5.496094 C 7.71875 -5.496094 8.074219 -5.347656 8.339844 -5.050781 C 8.601562 -4.753906 8.734375 -4.296875 8.734375 -3.683594 L 8.734375 -0.964844 C 8.734375 -0.839844 8.757812 -0.734375 8.800781 -0.652344 C 8.84375 -0.574219 8.917969 -0.511719 9.023438 -0.464844 C 9.105469 -0.433594 9.1875 -0.410156 9.269531 -0.394531 C 9.351562 -0.378906 9.441406 -0.367188 9.542969 -0.359375 Z "/>
</g>
</g>
</defs>
<g fill="rgb(100%, 100%, 100%)" fill-opacity="1">
<use xlink:href="#glyph-0-0" x="30" y="30.188477"/>
<use xlink:href="#glyph-0-1" x="37" y="30.188477"/>
<use xlink:href="#glyph-0-2" x="45" y="30.188477"/>
<use xlink:href="#glyph-0-3" x="51" y="30.188477"/>
<use xlink:href="#glyph-0-4" x="54" y="30.188477"/>
<use xlink:href="#glyph-0-5" x="60" y="30.188477"/>
<use xlink:href="#glyph-0-6" x="66" y="30.188477"/>
</g>
</svg>
